<svg xmlns="http://www.w3.org/2000/svg" viewBox="0 0 362.58 114.42"><g id="Layer_2" data-name="Layer 2"><g id="Layer_1-2" data-name="Layer 1"><path d="M361.56,0l-1,.19a61.27,61.27,0,0,1-15.43,52.64A61.44,61.44,0,0,1,301,71.67a57.89,57.89,0,0,1-7.55-.49c-7.4-1-14.83-3.36-22-5.66-9.28-3-18.81-6-28.38-6a39.6,39.6,0,0,0-8.7.93C220,63.64,209.16,75,198.73,86.06c-11.82,12.49-23,24.29-38.95,25.2-.65,0-1.3,0-1.94,0-15,0-26.93-10-39.51-20.53-6.1-5.11-12.4-10.4-19.07-14.4a68.5,68.5,0,0,0-35.05-9.49,66.72,66.72,0,0,0-23.74,4.27A69,69,0,0,0,0,114.12l1,.3A68,68,0,0,1,40.82,72.09a66,66,0,0,1,23.39-4.2,67.5,67.5,0,0,1,34.54,9.35c6.6,4,12.87,9.22,18.94,14.31,12.18,10.21,24.76,20.76,40.2,20.76.65,0,1.3,0,2,0,16.35-.93,28.18-13.43,39.62-25.51,10.33-10.92,21-22.2,35.11-25.35a39.59,39.59,0,0,1,8.61-.92c9.23,0,18.39,2.93,28,6,7.22,2.31,14.69,4.7,22.18,5.69a57.74,57.74,0,0,0,7.66.5,62.48,62.48,0,0,0,44.89-19.16A62.28,62.28,0,0,0,361.56,0Z" style="fill:#0a0343"/></g></g></svg>