<svg xmlns="http://www.w3.org/2000/svg" viewBox="0 0 299.01 423.06">
    <g id="logo" data-name="logo">
        <path
            d="M123.51,97.68c1.17,2.17,2.37,4.32,3.49,6.51,2.37,4.59,5.42,6.13,10,5,3.59-.89,7.66-6.12,8.1-9.48.36-2.8-2.1-3.09-3.14-3.36-9-2.33-17.69-1.7-25.42,3.9-3.13,2.27-5.79,5.18-8.69,7.82,12.27,11.72,43.93,8,56.45-6.21C159.4,94.26,152,90,143.47,88.4c-5.79-1.12-12-.12-18-.28-1.51-.05-3.63-.52-4.31-1.56s.09-3.12.87-4.34c6.26-9.7,15-15.52,26.44-18a46.73,46.73,0,0,0,5.19-1.78l-2.77-9.75S139,55.18,133.51,56.18c-16.27,3-30.13,9.87-39,24.52-8.6,14.26-11.94,30-13.13,46.48-1.21,16.7,4.87,32.32,5.07,49,0,.94-.25,3-1,3.61-4.47,3.82-7.54,1.61-13.6,2.19-4.78.45-8.91.93-8.91.93-5,.67-9.49.8-14.51,1.11-1.1.07-2.32-1.85-3.49-2.85a43.73,43.73,0,0,1,4.41-2.26,12.7,12.7,0,0,1,4-1.25,16.59,16.59,0,0,1,14.89,6.63c4.12,5.18,5.28,11.58,2.07,17.85-1.73,3.38-4.27,6.36-6.41,9.54-1.6,2.36-3.42,3-6.53,2.68-6.46-.6-13.18-.66-18,6.37,7.87.93,12.95-.92,20.06-5.56a8.94,8.94,0,0,1,4-1c3.64.25,6.78,2.71,10.52,4.21.54-.48,1.48-1.38,2.49-2.2,6.41-5.18,19.73-2.91,24.55,3.95,1.59,2.27,1.25,3.92-1.08,4.44-3.41.75-7,.77-10.48,1.1l-9.6,0a46.59,46.59,0,0,0-22.38,4.51,12.25,12.25,0,0,0-2.38,2.07c1.81,4.55,6.07,5.61,9.88,6.83,9.93,3.16,16-2.48,21-9.94.41-.62,1.23-1.39,1.66-2,1.26-1.81,4.1-4.67,5.4-6.46A57.27,57.27,0,0,1,97,216h0c5-7.67,10.23-15.38,15.61-22.78,9.93-13.67,20.45-26.91,30.34-40.61,3.9-5.42,8.06-11.25,9.76-17.53,2.07-7.62,1.66-15.91,2.33-23.91l.4-2.42c.15-4.17.6-7.81.44-12.32l.12-9.25c-.57-7.68-1.6-17.12-2.27-24.79h0c-1.33-5.83-2.28-8-3.8-13.82L149,45.19c-2.2-8.37-5.29-16.56-6.78-25S128.91,3.79,120,2.13C108.86.05,98.51,3.56,88,6.2,75.42,9.37,63.23,13.31,52.45,21.1A91.44,91.44,0,0,0,19.78,64.28c-3.36,9.11-4,19.23-5.76,28.91-2.55,14-5,28-7.52,42-3.06,16.87-5.11,33.83-5,51,.16,23.15,7.79,43.83,21.09,62.45a265.72,265.72,0,0,0,20.08,24.91c3.39,3.69,8.24,6.4,12.91,8.5,6,2.68,12.28.79,18.43-.33,10.13-1.86,20-5.23,28.3-10.83,7-4.69,12.93-11.48,18-18.31,11.64-15.48,22.3-31.69,33.72-47.34,7.13-9.76,14.83-19.13,22.46-28.52,5.88-7.23,14.22-11.13,22.54-14.36a266,266,0,0,1,32-10c12.22-3,22.43,3.51,27.91,17.39,4.11,10.43,6.07,21.45,8.19,32.45,3.08,15.94,3.26,32,2.75,48-.37,11.52-1.91,23-2.87,34.51-.41,5-.52,10-1,15-.87,8.18-1.91,16.35-3.07,24.49a3.16,3.16,0,0,1-2.4,1.92c-5.83,0-11.67-.24-17.5-.41l-4-.49c-4-1.05-5.17.93-8.6,3.42,6.7,4.55,7.7,4.38,11.62-1.92l1.73-3.15c4.78-9.62,6-17.15,7.42-27.83a83.29,83.29,0,0,0-4.2-40c-4.1-11.35-8.8-20.09-22.71-23.3a71.77,71.77,0,0,0-23.8-.74c-4.29.74-6.43,3.67-5.39,6.5.71,1.94,2.08,3.63,2.91,5.54,1.65,3.8,3.76,6.79,8.53,6.5,4.14-.25,9.54-3.83,10.42-7.54.48-2.06.31-4-2.91-4.43-4.93-.63-9,.09-14.5,1.44-5,1.22-8.78,2.21-8.78,2.21a59.65,59.65,0,0,0-11.2,4.37c-3.33,1.54-3.54,4.49-.5,5.88,14.44,6.64,29,7.39,43.44,0a6.1,6.1,0,0,0,2.94-3c2.05-6.14,3.41-12.41,2.6-19-1.27-10.37-8.69-14-17.52-14.85-13.83-1.31-26.44,2.37-37,11.86-5.34,4.8-7.51,11.27-8.38,18a168.61,168.61,0,0,0-1.07,20.49c-.13,20.16.15,40.33-.14,60.49-.13,9.6,2.57,18.49,6.24,26.94,6.18,14.18,13.46,27.93,23.92,39.5C204.33,404,216,413.73,230.08,420a15.62,15.62,0,0,0,15-.81c7.92-4.87,14.47-10.62,12.87-21-.88-5.72,2.3-10.31,3.12-15.51.36-2.32.89-4.61,1.49-7.64-10.31.73-19.93-1.62-29.81,4.13,8.08,6.27,16.61,11.53,25.3,9,.87-.25,2.15-1.7,3-2,1.9-.66,4.16.1,6-.57,9.26-3.41,16.12-9.83,21.08-17.26h0c-.66-1.66-2.38-5.19-3.61-6.11-3.58-2.67-5.22-4.56-8.92-7.09-6.67-4.56-11.19-1.61-17.07,1.74a7.06,7.06,0,0,0-2.65,2.53c-8.2-7.62-16-5.67-23.78-2.18-5.1,2.3-10,5.1-15.39,7.91,3.63,4.09,7.35,3.43,10.85,2.47,4.86-1.34,9.5-1.23,14.55-.71a76.74,76.74,0,0,0,21.44-.92c8.31-1.5,16-1,23.53,2.69l4.2-.66c7.12-.64,4.38-.24,6.3-.34"
            style="fill:none;stroke:#6567ab;stroke-linecap:round;stroke-linejoin:round;stroke-width:3px" />
    </g>
</svg>